<svg width="40" height="40" viewBox="0 0 40 40" fill="none" xmlns="http://www.w3.org/2000/svg">
<path d="M34.2 25.35L31.2 22.3333V14.9C31.24 12.1397 30.2798 9.45819 28.4969 7.35056C26.714 5.24294 24.2288 3.85156 21.5 3.43334C19.9164 3.22478 18.3065 3.35636 16.7777 3.81929C15.249 4.28223 13.8365 5.06587 12.6346 6.11794C11.4327 7.17 10.469 8.4663 9.80772 9.92033C9.14649 11.3744 8.80296 12.9527 8.80004 14.55V22.3333L5.80004 25.35C5.42322 25.7331 5.16768 26.2188 5.06537 26.7463C4.96307 27.2739 5.01853 27.8199 5.22484 28.3161C5.43114 28.8123 5.77912 29.2366 6.22529 29.5361C6.67146 29.8356 7.19601 29.997 7.73337 30H13.3334V30.5667C13.4112 32.2587 14.1566 33.8508 15.4062 34.9942C16.6559 36.1376 18.3078 36.739 20 36.6667C21.6923 36.739 23.3442 36.1376 24.5938 34.9942C25.8435 33.8508 26.5889 32.2587 26.6667 30.5667V30H32.2667C32.8041 29.997 33.3286 29.8356 33.7748 29.5361C34.221 29.2366 34.5689 28.8123 34.7752 28.3161C34.9815 27.8199 35.037 27.2739 34.9347 26.7463C34.8324 26.2188 34.5769 25.7331 34.2 25.35ZM23.3334 30.5667C23.2409 31.3683 22.8428 32.1034 22.2218 32.6188C21.6009 33.1342 20.805 33.3902 20 33.3333C19.1951 33.3902 18.3992 33.1342 17.7783 32.6188C17.1573 32.1034 16.7591 31.3683 16.6667 30.5667V30H23.3334V30.5667ZM9.18337 26.6667L11.15 24.7C11.462 24.3899 11.7095 24.0211 11.8782 23.615C12.047 23.2088 12.1337 22.7732 12.1334 22.3333V14.55C12.1343 13.4257 12.3757 12.3145 12.8414 11.2912C13.307 10.2678 13.9862 9.35592 14.8334 8.61667C15.6691 7.85947 16.6593 7.29292 17.7356 6.95622C18.8119 6.61953 19.9485 6.52073 21.0667 6.66667C22.9942 6.97963 24.7437 7.97835 25.9932 9.47897C27.2427 10.9796 27.908 12.8811 27.8667 14.8333V22.3333C27.8642 22.772 27.9483 23.2069 28.1141 23.613C28.28 24.0191 28.5244 24.3885 28.8334 24.7L30.8167 26.6667H9.18337Z" fill="#F2F2F2"/>
</svg>
