<svg width="35" height="35" viewBox="0 0 35 35" fill="none" xmlns="http://www.w3.org/2000/svg">
<g clip-path="url(#clip0_10_1297)">
<path d="M34.5504 32.4589L26.6639 24.5654C28.7908 21.9746 30.0612 18.6559 30.0612 15.0446C30.0612 6.74421 23.331 0.0139894 15.0306 0.0139894C6.73022 0.0139894 0 6.74421 0 15.0446C0 23.3449 6.73022 30.0752 15.0306 30.0752C18.6562 30.0752 21.9821 28.7905 24.5799 26.6494L32.4664 34.5358C33.387 35.378 34.2506 34.8356 34.5504 34.5358C35.1499 33.9434 35.1499 33.0513 34.5504 32.4589ZM2.93332 15.0446C2.93332 8.36432 8.35033 2.94731 15.0306 2.94731C21.7108 2.94731 27.135 8.36432 27.135 15.0446C27.135 21.7248 21.718 27.1418 15.0377 27.1418C8.35746 27.1418 2.93332 21.7248 2.93332 15.0446Z" fill="#F2F2F2"/>
</g>
<defs>
<clipPath id="clip0_10_1297">
<rect width="35" height="35" fill="white"/>
</clipPath>
</defs>
</svg>
